<svg width="25" height="24" viewBox="0 0 25 24" fill="none" xmlns="http://www.w3.org/2000/svg">
<mask id="mask0_247_2504" style="mask-type:luminance" maskUnits="userSpaceOnUse" x="3" y="2" width="18" height="21">
<path fill-rule="evenodd" clip-rule="evenodd" d="M3.5 2H20.5388V22.8467H3.5V2Z" fill="white"/>
</mask>
<g mask="url(#mask0_247_2504)">
<path fill-rule="evenodd" clip-rule="evenodd" d="M8.842 3.5C6.293 3.5 5 4.482 5 6.421V21.145C5 21.239 5.054 21.29 5.099 21.316C5.144 21.344 5.215 21.364 5.297 21.318L11.679 17.738C11.907 17.611 12.186 17.61 12.415 17.739L18.742 21.313C18.825 21.361 18.896 21.339 18.941 21.312C18.986 21.285 19.039 21.234 19.039 21.14V6.604C19.039 5.837 19.039 3.5 15.201 3.5H8.842ZM5.199 22.847C4.904 22.847 4.609 22.768 4.341 22.61C3.814 22.303 3.5 21.754 3.5 21.145V6.421C3.5 3.611 5.447 2 8.842 2H15.201C18.593 2 20.539 3.679 20.539 6.604V21.14C20.539 21.75 20.225 22.299 19.697 22.606C19.171 22.914 18.537 22.92 18.005 22.62L12.045 19.253L6.03 22.627C5.77 22.773 5.485 22.847 5.199 22.847V22.847Z" fill="#222222" fill-opacity="0.54"/>
</g>
<path fill-rule="evenodd" clip-rule="evenodd" d="M15.6398 10.2285H8.32178C7.90778 10.2285 7.57178 9.89252 7.57178 9.47852C7.57178 9.06452 7.90778 8.72852 8.32178 8.72852H15.6398C16.0538 8.72852 16.3898 9.06452 16.3898 9.47852C16.3898 9.89252 16.0538 10.2285 15.6398 10.2285" fill="#222222" fill-opacity="0.54"/>
</svg>
