<svg width="24" height="25" viewBox="0 0 24 25" fill="none" xmlns="http://www.w3.org/2000/svg">
<path fill-rule="evenodd" clip-rule="evenodd" d="M6.25 3.55555C3.5 3.55555 3.5 3.76685 3.5 6.3492V6.3746C3.5 7.49917 3.5 8.31187 3.771 8.65523C4.036 8.98844 4.823 9.14285 6.25 9.14285C7.677 9.14285 8.464 8.98742 8.729 8.65421C9 8.31187 9 7.49917 9 6.37358C9 3.76685 9 3.55555 6.25 3.55555ZM6.25 10.6667C4.564 10.6667 3.299 10.4868 2.604 9.61015C2 8.84926 2 7.81104 2 6.3746L2.75 6.3492H2C2 3.43364 2.181 2.03174 6.25 2.03174C10.319 2.03174 10.5 3.43364 10.5 6.3492C10.5 7.81002 10.5 8.84926 9.896 9.61015C9.201 10.4868 7.936 10.6667 6.25 10.6667Z" fill="#D6D6D6"/>
<path fill-rule="evenodd" clip-rule="evenodd" d="M17.25 3.55555C14.5 3.55555 14.5 3.76685 14.5 6.3492V6.3746C14.5 7.49917 14.5 8.31187 14.771 8.65523C15.036 8.98844 15.823 9.14285 17.25 9.14285C18.677 9.14285 19.464 8.98742 19.729 8.65421C20 8.31187 20 7.49917 20 6.37358C20 3.76685 20 3.55555 17.25 3.55555ZM17.25 10.6667C15.564 10.6667 14.299 10.4868 13.604 9.61015C13 8.84926 13 7.81104 13 6.3746L13.75 6.3492H13C13 3.43364 13.181 2.03174 17.25 2.03174C21.319 2.03174 21.5 3.43364 21.5 6.3492C21.5 7.81002 21.5 8.84926 20.896 9.61015C20.201 10.4868 18.936 10.6667 17.25 10.6667Z" fill="#D6D6D6"/>
<path fill-rule="evenodd" clip-rule="evenodd" d="M6.25 14.7302C3.5 14.7302 3.5 14.9415 3.5 17.5238V17.5492C3.5 18.6738 3.5 19.4865 3.771 19.8299C4.036 20.1631 4.823 20.3175 6.25 20.3175C7.677 20.3175 8.464 20.162 8.729 19.8288C9 19.4865 9 18.6738 9 17.5482C9 14.9415 9 14.7302 6.25 14.7302ZM6.25 21.8413C4.564 21.8413 3.299 21.6615 2.604 20.7848C2 20.0239 2 18.9857 2 17.5492L2.75 17.5238H2C2 14.6083 2.181 13.2064 6.25 13.2064C10.319 13.2064 10.5 14.6083 10.5 17.5238C10.5 18.9846 10.5 20.0239 9.896 20.7848C9.201 21.6615 7.936 21.8413 6.25 21.8413Z" fill="#D6D6D6"/>
<path fill-rule="evenodd" clip-rule="evenodd" d="M17.25 14.7302C14.5 14.7302 14.5 14.9415 14.5 17.5238V17.5492C14.5 18.6738 14.5 19.4865 14.771 19.8299C15.036 20.1631 15.823 20.3175 17.25 20.3175C18.677 20.3175 19.464 20.162 19.729 19.8288C20 19.4865 20 18.6738 20 17.5482C20 14.9415 20 14.7302 17.25 14.7302ZM17.25 21.8413C15.564 21.8413 14.299 21.6615 13.604 20.7848C13 20.0239 13 18.9857 13 17.5492L13.75 17.5238H13C13 14.6083 13.181 13.2064 17.25 13.2064C21.319 13.2064 21.5 14.6083 21.5 17.5238C21.5 18.9846 21.5 20.0239 20.896 20.7848C20.201 21.6615 18.936 21.8413 17.25 21.8413Z" fill="#D6D6D6"/>
</svg>
