<svg width="24" height="25" viewBox="0 0 24 25" fill="none" xmlns="http://www.w3.org/2000/svg">
<mask id="mask0_183_2462" style="mask-type:luminance" maskUnits="userSpaceOnUse" x="3" y="1" width="19" height="18">
<path fill-rule="evenodd" clip-rule="evenodd" d="M3.00008 1.36505H21.497V18.9884H3.00008V1.36505Z" fill="white"/>
</mask>
<g mask="url(#mask0_183_2462)">
<path fill-rule="evenodd" clip-rule="evenodd" d="M12.2471 2.88886C8.7521 2.88886 6.3161 5.67032 6.3161 8.16632C6.3161 10.2783 5.7391 11.2546 5.2291 12.116C4.8201 12.8078 4.4971 13.3544 4.4971 14.5419C4.6641 16.4579 5.9091 17.4646 12.2471 17.4646C18.5501 17.4646 19.8341 16.4132 20.0001 14.4759C19.9971 13.3544 19.6741 12.8078 19.2651 12.116C18.7551 11.2546 18.1781 10.2783 18.1781 8.16632C18.1781 5.67032 15.7421 2.88886 12.2471 2.88886ZM12.2471 18.9884C7.5711 18.9884 3.3451 18.6532 3.0001 14.607C2.9971 12.9328 3.5001 12.0815 3.9441 11.3318C4.3931 10.5719 4.8161 9.85572 4.8161 8.16632C4.8161 4.882 7.8021 1.36505 12.2471 1.36505C16.6921 1.36505 19.6781 4.882 19.6781 8.16632C19.6781 9.85572 20.1011 10.5719 20.5501 11.3318C20.9941 12.0815 21.4971 12.9328 21.4971 14.5419C21.1481 18.6532 16.9231 18.9884 12.2471 18.9884Z" fill="#D6D6D6"/>
</g>
<path fill-rule="evenodd" clip-rule="evenodd" d="M12.1983 23.2063H12.1963C11.0753 23.2053 10.0143 22.7034 9.20929 21.7922C8.93229 21.4803 8.95729 20.9978 9.26529 20.7174C9.57329 20.435 10.0473 20.4604 10.3243 20.7743C10.8423 21.3605 11.5073 21.6825 12.1973 21.6825H12.1983C12.8913 21.6825 13.5593 21.3605 14.0783 20.7733C14.3563 20.4614 14.8303 20.436 15.1373 20.7174C15.4453 20.9988 15.4703 21.4814 15.1933 21.7932C14.3853 22.7045 13.3223 23.2063 12.1983 23.2063Z" fill="#D6D6D6"/>
</svg>
