<svg width="25" height="24" viewBox="0 0 25 24" fill="none" xmlns="http://www.w3.org/2000/svg">
<mask id="mask0_247_2506" style="mask-type:luminance" maskUnits="userSpaceOnUse" x="4" y="14" width="17" height="8">
<path fill-rule="evenodd" clip-rule="evenodd" d="M4.5 14.4961H20.3399V21.8701H4.5V14.4961Z" fill="white"/>
</mask>
<g mask="url(#mask0_247_2506)">
<path fill-rule="evenodd" clip-rule="evenodd" d="M12.421 15.9961C8.16 15.9961 6 16.7281 6 18.1731C6 19.6311 8.16 20.3701 12.421 20.3701C16.681 20.3701 18.84 19.6381 18.84 18.1931C18.84 16.7351 16.681 15.9961 12.421 15.9961M12.421 21.8701C10.462 21.8701 4.5 21.8701 4.5 18.1731C4.5 14.8771 9.021 14.4961 12.421 14.4961C14.38 14.4961 20.34 14.4961 20.34 18.1931C20.34 21.4891 15.82 21.8701 12.421 21.8701" fill="#222222" fill-opacity="0.54"/>
</g>
<mask id="mask1_247_2506" style="mask-type:luminance" maskUnits="userSpaceOnUse" x="7" y="2" width="11" height="11">
<path fill-rule="evenodd" clip-rule="evenodd" d="M7.10986 2H17.7299V12.6186H7.10986V2Z" fill="white"/>
</mask>
<g mask="url(#mask1_247_2506)">
<path fill-rule="evenodd" clip-rule="evenodd" d="M12.4209 3.42751C10.2799 3.42751 8.53789 5.16851 8.53789 7.30951C8.53089 9.44351 10.2599 11.1835 12.3919 11.1915L12.4209 11.9055V11.1915C14.5609 11.1915 16.3019 9.44951 16.3019 7.30951C16.3019 5.16851 14.5609 3.42751 12.4209 3.42751M12.4209 12.6185H12.3889C9.4669 12.6095 7.09989 10.2265 7.10989 7.30651C7.10989 4.38151 9.49189 1.99951 12.4209 1.99951C15.3489 1.99951 17.7299 4.38151 17.7299 7.30951C17.7299 10.2375 15.3489 12.6185 12.4209 12.6185" fill="#222222" fill-opacity="0.54"/>
</g>
</svg>
